<svg width="30" height="30" viewBox="0 0 30 30" fill="none" xmlns="http://www.w3.org/2000/svg">
<path d="M25 25L5 25" stroke="black" stroke-width="1.5" stroke-linecap="round"/>
<path d="M5 13.9999L13.1259 7.49919C14.2216 6.62267 15.7784 6.62267 16.8741 7.49919L25 13.9999" stroke="black" stroke-width="1.5" stroke-linecap="round"/>
<path d="M18.5 8.5V6.5C18.5 6.22386 18.7239 6 19 6H21.5C21.7761 6 22 6.22386 22 6.5V11.5" stroke="black" stroke-width="1.5" stroke-linecap="round"/>
<path d="M7 25V12.5" stroke="black" stroke-width="1.5" stroke-linecap="round"/>
<path d="M23 25V12.5" stroke="black" stroke-width="1.5" stroke-linecap="round"/>
<path d="M18 25V20C18 18.5858 18 17.8787 17.5607 17.4393C17.1213 17 16.4142 17 15 17C13.5858 17 12.8787 17 12.4393 17.4393C12 17.8787 12 18.5858 12 20V25" stroke="black" stroke-width="1.5"/>
<path d="M17 12.5C17 13.6046 16.1046 14.5 15 14.5C13.8954 14.5 13 13.6046 13 12.5C13 11.3954 13.8954 10.5 15 10.5C16.1046 10.5 17 11.3954 17 12.5Z" stroke="black" stroke-width="1.5"/>
</svg>
