<svg width="30" height="30" viewBox="0 0 30 30" fill="none" xmlns="http://www.w3.org/2000/svg">
<path d="M20 15C20 17.7614 17.7614 20 15 20C12.2386 20 10 17.7614 10 15C10 12.2386 12.2386 10 15 10C17.7614 10 20 12.2386 20 15Z" fill="#FFEB00"/>
<path fill-rule="evenodd" clip-rule="evenodd" d="M15 4.25C15.4142 4.25 15.75 4.58579 15.75 5V7C15.75 7.41421 15.4142 7.75 15 7.75C14.5858 7.75 14.25 7.41421 14.25 7V5C14.25 4.58579 14.5858 4.25 15 4.25ZM6.66865 6.71609C6.94815 6.41039 7.42255 6.38915 7.72825 6.66865L9.95026 8.70024C10.256 8.97974 10.2772 9.45413 9.9977 9.75983C9.7182 10.0655 9.2438 10.0868 8.9381 9.80727L6.71609 7.77569C6.41039 7.49619 6.38915 7.02179 6.66865 6.71609ZM23.3314 6.71609C23.6109 7.02179 23.5896 7.49619 23.2839 7.77569L21.0619 9.80727C20.7562 10.0868 20.2818 10.0655 20.0023 9.75983C19.7228 9.45413 19.744 8.97974 20.0497 8.70024L22.2718 6.66865C22.5775 6.38915 23.0518 6.41039 23.3314 6.71609ZM4.25 15C4.25 14.5858 4.58579 14.25 5 14.25H7C7.41421 14.25 7.75 14.5858 7.75 15C7.75 15.4142 7.41421 15.75 7 15.75H5C4.58579 15.75 4.25 15.4142 4.25 15ZM22.25 15C22.25 14.5858 22.5858 14.25 23 14.25H25C25.4142 14.25 25.75 14.5858 25.75 15C25.75 15.4142 25.4142 15.75 25 15.75H23C22.5858 15.75 22.25 15.4142 22.25 15ZM20.0255 20.0252C20.3184 19.7323 20.7933 19.7323 21.0862 20.0252L23.3082 22.2475C23.6011 22.5404 23.601 23.0153 23.3081 23.3082C23.0152 23.6011 22.5403 23.601 22.2475 23.3081L20.0255 21.0858C19.7326 20.7929 19.7326 20.3181 20.0255 20.0252ZM9.97467 20.0253C10.2676 20.3182 10.2676 20.7931 9.97467 21.086L7.75244 23.3082C7.45955 23.6011 6.98468 23.6011 6.69178 23.3082C6.39889 23.0153 6.39889 22.5404 6.69178 22.2476L8.91401 20.0253C9.2069 19.7324 9.68177 19.7324 9.97467 20.0253ZM15 22.25C15.4142 22.25 15.75 22.5858 15.75 23V25C15.75 25.4142 15.4142 25.75 15 25.75C14.5858 25.75 14.25 25.4142 14.25 25V23C14.25 22.5858 14.5858 22.25 15 22.25Z" fill="#FFEB00"/>
</svg>
